<svg xmlns="http://www.w3.org/2000/svg" width="512" height="512" viewBox="0 0 64 64">
  <defs>
    <linearGradient id="logo-grad-h-new" x1="0%" y1="0%" x2="100%" y2="100%">
      <stop offset="0%" stop-color="#FCD34D"/>
      <stop offset="50%" stop-color="#D4AF37"/>
      <stop offset="100%" stop-color="#B45309"/>
    </linearGradient>
  </defs>
  <rect x="2" y="2" width="60" height="60" rx="14" fill="#151515" stroke="url(#logo-grad-h-new)" stroke-width="1.5"/>
  <path d="M42 22 L34 22 L34 30 L40 30 C40 30 38 38 32 38 C26.477 38 22 33.523 22 28 C22 22.477 26.477 18 32 18 C35.5 18 37 19.5 38 20.5 L43 15.5 C40 13 36.5 11 32 11 C22.611 11 15 18.611 15 28 C15 37.389 22.611 45 32 45 C41.389 45 47 37 47 30 C47 26 46 22 42 22 Z" fill="url(#logo-grad-h-new)"/>
  <circle cx="46" cy="18" r="3" fill="#FFF" fill-opacity="0.9"/>
</svg>